<?xml version="1.0" encoding="utf-8"?>
<svg viewBox="0 0 335.99 235.19" xmlns="http://www.w3.org/2000/svg">
  <defs>
    <style>.cls-1{fill:#d1d3d4;}.cls-2,.cls-5{fill:#f1f2f2;}.cls-2,.cls-4{fill-rule:evenodd;}.cls-3{fill:#4f4341;}.cls-4,.cls-6{fill:#fff;}.cls-7{fill:#eba63f;}.cls-8{fill:#97e6e4;}</style>
  </defs>
  <rect class="cls-1" width="335.99" height="235.19" style="fill: rgba(, 170, 255, 0); fill-opacity: 0;"/>
  <path class="cls-2" d="M73.22,125.46V23.66a3.93,3.93,0,0,1,3.93-3.93H243.86a3.93,3.93,0,0,1,3.94,3.93v101.8H73.22Z" style="fill: rgb(164, 164, 164);"/>
  <path class="cls-3" d="M247.8,126H73.22a0.5,0.5,0,0,1-.5-0.5V23.66a4.44,4.44,0,0,1,4.43-4.43H243.86a4.44,4.44,0,0,1,4.44,4.43v101.8A0.5,0.5,0,0,1,247.8,126ZM73.72,125H247.3V23.66a3.44,3.44,0,0,0-3.44-3.43H77.15a3.44,3.44,0,0,0-3.43,3.43V125Z"/>
  <path class="cls-4" d="M243.86,141.2H77.15a3.93,3.93,0,0,1-3.93-3.93v-11.8H247.8v11.8A3.93,3.93,0,0,1,243.86,141.2Z" style="fill: rgb(164, 164, 164);"/>
  <path class="cls-3" d="M243.86,141.7H77.15a4.44,4.44,0,0,1-4.43-4.43v-11.8a0.5,0.5,0,0,1,.5-0.5H247.8a0.5,0.5,0,0,1,.5.5v11.8A4.44,4.44,0,0,1,243.86,141.7ZM73.72,126v11.3a3.44,3.44,0,0,0,3.43,3.43H243.86a3.44,3.44,0,0,0,3.44-3.43V126H73.72Z"/>
  <path class="cls-4" d="M241,27.4v90.38H80V27.4H241Z" style=""/>
  <path class="cls-3" d="M241,118.28H80a0.5,0.5,0,0,1-.5-0.5V27.4a0.5,0.5,0,0,1,.5-0.5H241a0.5,0.5,0,0,1,.5.5v90.38A0.5,0.5,0,0,1,241,118.28Zm-160.44-1H240.48V27.9H80.54v89.38Z"/>
  <rect class="cls-5" x="140.48" y="141.16" width="41.1" height="18.48"/>
  <path class="cls-3" d="M181.59,160.14h-41.1a0.5,0.5,0,0,1-.5-0.5V141.16a0.5,0.5,0,0,1,.5-0.5h41.1a0.5,0.5,0,0,1,.5.5v18.48A0.5,0.5,0,0,1,181.59,160.14Zm-40.6-1h40.1V141.66H141v17.48Z"/>
  <rect class="cls-1" x="133.82" y="159.26" width="53.16" height="4.24"/>
  <path class="cls-3" d="M187,164H133.82a0.5,0.5,0,0,1-.5-0.5v-4.24a0.5,0.5,0,0,1,.5-0.5H187a0.5,0.5,0,0,1,.5.5v4.24A0.5,0.5,0,0,1,187,164Zm-52.66-1h52.16v-3.24H134.32V163Z"/>
  <path class="cls-6" d="M141.5,110.13H130.88V99.5H141.5v10.63Z"/>
  <path class="cls-3" d="M141.5,110.63H130.88a0.5,0.5,0,0,1-.5-0.5V99.5a0.5,0.5,0,0,1,.5-0.5H141.5a0.5,0.5,0,0,1,.5.5v10.63A0.5,0.5,0,0,1,141.5,110.63Zm-10.12-1H141V100h-9.62v9.63Z"/>
  <path class="cls-5" d="M125.84,110.13H115.22V99.5h10.62v10.63Z"/>
  <path class="cls-3" d="M125.84,110.63H115.22a0.5,0.5,0,0,1-.5-0.5V99.5a0.5,0.5,0,0,1,.5-0.5h10.62a0.5,0.5,0,0,1,.5.5v10.63A0.5,0.5,0,0,1,125.84,110.63Zm-10.12-1h9.62V100h-9.62v9.63Z"/>
  <path class="cls-7" d="M110.18,110.13H99.55V99.5h10.62v10.63Z" style="fill: rgb(229, 83, 129);"/>
  <path class="cls-3" d="M110.18,110.63H99.55a0.5,0.5,0,0,1-.5-0.5V99.5a0.5,0.5,0,0,1,.5-0.5h10.62a0.5,0.5,0,0,1,.5.5v10.63A0.5,0.5,0,0,1,110.18,110.63Zm-10.12-1h9.62V100h-9.62v9.63Z"/>
  <path class="cls-8" d="M157.16,110.13H146.54V99.5h10.62v10.63Z" style="fill: rgb(0, 132, 165);"/>
  <path class="cls-3" d="M157.16,110.63H146.54a0.5,0.5,0,0,1-.5-0.5V99.5a0.5,0.5,0,0,1,.5-0.5h10.62a0.5,0.5,0,0,1,.5.5v10.63A0.5,0.5,0,0,1,157.16,110.63Zm-10.12-1h9.62V100H147v9.63Z"/>
  <path class="cls-1" d="M172.82,110.13H162.2V99.5h10.61v10.63Z"/>
  <path class="cls-3" d="M172.82,110.63H162.2a0.5,0.5,0,0,1-.5-0.5V99.5a0.5,0.5,0,0,1,.5-0.5h10.61a0.5,0.5,0,0,1,.5.5v10.63A0.5,0.5,0,0,1,172.82,110.63Zm-10.11-1h9.61V100H162.7v9.63Z"/>
  <path class="cls-5" d="M188.48,110.13H177.86V99.5h10.62v10.63Z"/>
  <path class="cls-3" d="M188.48,110.63H177.86a0.5,0.5,0,0,1-.5-0.5V99.5a0.5,0.5,0,0,1,.5-0.5h10.62a0.5,0.5,0,0,1,.5.5v10.63A0.5,0.5,0,0,1,188.48,110.63Zm-10.12-1H188V100h-9.62v9.63Z"/>
  <path class="cls-7" d="M204.14,110.13H193.52V99.5h10.62v10.63Z" style="fill: rgb(229, 83, 129);"/>
  <path class="cls-3" d="M204.14,110.63H193.52a0.5,0.5,0,0,1-.5-0.5V99.5a0.5,0.5,0,0,1,.5-0.5h10.62a0.5,0.5,0,0,1,.5.5v10.63A0.5,0.5,0,0,1,204.14,110.63Zm-10.12-1h9.62V100H194v9.63Z"/>
  <path class="cls-8" d="M219.8,110.13H209.18V99.5H219.8v10.63Z" style="fill: rgb(208, 208, 208);"/>
  <path class="cls-3" d="M219.8,110.63H209.18a0.5,0.5,0,0,1-.5-0.5V99.5a0.5,0.5,0,0,1,.5-0.5H219.8a0.5,0.5,0,0,1,.5.5v10.63A0.5,0.5,0,0,1,219.8,110.63Zm-10.12-1h9.62V100h-9.62v9.63Z" style=""/>
  <rect class="cls-6" x="80.08" y="32.72" width="160.97" height="61.76" style="fill-opacity: 0;"/>
  <path class="cls-3" d="M241,95h-161a0.5,0.5,0,0,1-.5-0.5V32.72a0.5,0.5,0,0,1,.5-0.5H241a0.5,0.5,0,0,1,.5.5V94.48A0.5,0.5,0,0,1,241,95ZM80.58,94h160V33.22h-160V94Z"/>
  <polygon class="cls-6" points="88.02 63.6 92.19 67.77 92.19 59.42 88.02 63.6"/>
  <path class="cls-3" d="M92.19,68.27a0.5,0.5,0,0,1-.35-0.15L87.67,64a0.5,0.5,0,0,1,0-.71l4.17-4.18a0.5,0.5,0,0,1,.85.35v8.35A0.5,0.5,0,0,1,92.19,68.27ZM88.73,63.6l3,3V60.63Z"/>
  <polygon class="cls-6" points="233.11 63.6 228.93 67.77 228.93 59.42 233.11 63.6"/>
  <path class="cls-3" d="M228.93,68.27a0.49,0.49,0,0,1-.19,0,0.5,0.5,0,0,1-.31-0.46V59.42a0.5,0.5,0,0,1,.85-0.35l4.18,4.18a0.5,0.5,0,0,1,0,.71l-4.18,4.18A0.5,0.5,0,0,1,228.93,68.27Zm0.5-7.65v5.94l3-3Z"/>
  <rect class="cls-8" x="103.91" y="44.93" width="37.32" height="37.32" style="fill: rgb(0, 132, 165);"/>
  <path class="cls-3" d="M141.23,82.75H103.91a0.5,0.5,0,0,1-.5-0.5V44.93a0.5,0.5,0,0,1,.5-0.5h37.32a0.5,0.5,0,0,1,.5.5V82.25A0.5,0.5,0,0,1,141.23,82.75Zm-36.82-1h36.32V45.43H104.41V81.75Z"/>
  <rect class="cls-6" x="146.81" y="44.81" width="42.06" height="4.31"/>
  <path class="cls-3" d="M188.88,49.63H146.81a0.5,0.5,0,0,1-.5-0.5V44.81a0.5,0.5,0,0,1,.5-0.5h42.06a0.5,0.5,0,0,1,.5.5v4.31A0.5,0.5,0,0,1,188.88,49.63Zm-41.56-1h41.06V45.31H147.31v3.31Z"/>
  <rect class="cls-5" x="146.81" y="54.16" width="74.06" height="4.31"/>
  <path class="cls-3" d="M220.87,59H146.81a0.5,0.5,0,0,1-.5-0.5V54.16a0.5,0.5,0,0,1,.5-0.5h74.06a0.5,0.5,0,0,1,.5.5v4.31A0.5,0.5,0,0,1,220.87,59Zm-73.56-1h73.06V54.66H147.31V58Z"/>
  <rect class="cls-5" x="146.81" y="62.07" width="74.06" height="4.31"/>
  <path class="cls-3" d="M220.87,66.88H146.81a0.5,0.5,0,0,1-.5-0.5V62.07a0.5,0.5,0,0,1,.5-0.5h74.06a0.5,0.5,0,0,1,.5.5v4.31A0.5,0.5,0,0,1,220.87,66.88Zm-73.56-1h73.06V62.57H147.31v3.31Z"/>
  <rect class="cls-5" x="146.81" y="69.98" width="74.06" height="4.31"/>
  <path class="cls-3" d="M220.87,74.79H146.81a0.5,0.5,0,0,1-.5-0.5V70a0.5,0.5,0,0,1,.5-0.5h74.06a0.5,0.5,0,0,1,.5.5v4.31A0.5,0.5,0,0,1,220.87,74.79Zm-73.56-1h73.06V70.48H147.31v3.31Z"/>
  <rect class="cls-6" x="146.81" y="77.89" width="74.06" height="4.31"/>
  <path class="cls-3" d="M220.87,82.7H146.81a0.5,0.5,0,0,1-.5-0.5V77.89a0.5,0.5,0,0,1,.5-0.5h74.06a0.5,0.5,0,0,1,.5.5V82.2A0.5,0.5,0,0,1,220.87,82.7Zm-73.56-1h73.06V78.39H147.31V81.7Z"/>
  <circle class="cls-6" cx="122.73" cy="63.66" r="11.25"/>
  <path class="cls-3" d="M122.73,75.41a11.75,11.75,0,1,1,11.75-11.75A11.76,11.76,0,0,1,122.73,75.41Zm0-22.5a10.75,10.75,0,1,0,10.75,10.75A10.76,10.76,0,0,0,122.73,52.91Z"/>
  <polygon class="cls-6" points="125.43 63.59 121.25 59.42 121.25 67.77 125.43 63.59"/>
  <path class="cls-3" d="M121.26,68.27a0.5,0.5,0,0,1-.5-0.5V59.42a0.5,0.5,0,0,1,.85-0.35l4.17,4.18a0.5,0.5,0,0,1,0,.71l-4.17,4.18A0.5,0.5,0,0,1,121.26,68.27Zm0.5-7.65v5.94l3-3Z"/>
  <rect class="cls-6" x="21.99" y="163.68" width="164.97" height="52.29" style="fill: rgb(164, 164, 164);"/>
  <path class="cls-3" d="M187,216.46H22a0.5,0.5,0,0,1-.5-0.5V163.68a0.5,0.5,0,0,1,.5-0.5H187a0.5,0.5,0,0,1,.5.5V216A0.5,0.5,0,0,1,187,216.46Zm-164.47-1h164V164.18h-164v51.29Z"/>
  <rect class="cls-6" x="29.84" y="180.58" width="7.32" height="7.89"/>
  <path class="cls-3" d="M37.16,189H29.84a0.5,0.5,0,0,1-.5-0.5v-7.89a0.5,0.5,0,0,1,.5-0.5h7.32a0.5,0.5,0,0,1,.5.5v7.89A0.5,0.5,0,0,1,37.16,189Zm-6.82-1h6.32v-6.89H30.34V188Z"/>
  <rect class="cls-6" x="29.84" y="169.34" width="7.32" height="7.89"/>
  <path class="cls-3" d="M37.16,177.73H29.84a0.5,0.5,0,0,1-.5-0.5v-7.89a0.5,0.5,0,0,1,.5-0.5h7.32a0.5,0.5,0,0,1,.5.5v7.89A0.5,0.5,0,0,1,37.16,177.73Zm-6.82-1h6.32v-6.89H30.34v6.89Z"/>
  <rect class="cls-6" x="29.84" y="191.83" width="7.32" height="7.89"/>
  <path class="cls-3" d="M37.16,200.22H29.84a0.5,0.5,0,0,1-.5-0.5v-7.89a0.5,0.5,0,0,1,.5-0.5h7.32a0.5,0.5,0,0,1,.5.5v7.89A0.5,0.5,0,0,1,37.16,200.22Zm-6.82-1h6.32v-6.89H30.34v6.89Z"/>
  <rect class="cls-6" x="29.84" y="203.07" width="7.32" height="7.89"/>
  <path class="cls-3" d="M37.16,211.46H29.84a0.5,0.5,0,0,1-.5-0.5v-7.89a0.5,0.5,0,0,1,.5-0.5h7.32a0.5,0.5,0,0,1,.5.5V211A0.5,0.5,0,0,1,37.16,211.46Zm-6.82-1h6.32v-6.89H30.34v6.89Z"/>
  <rect class="cls-6" x="40.76" y="180.58" width="7.32" height="7.89"/>
  <path class="cls-3" d="M48.08,189H40.76a0.5,0.5,0,0,1-.5-0.5v-7.89a0.5,0.5,0,0,1,.5-0.5h7.32a0.5,0.5,0,0,1,.5.5v7.89A0.5,0.5,0,0,1,48.08,189Zm-6.82-1h6.32v-6.89H41.26V188Z"/>
  <rect class="cls-6" x="40.76" y="169.34" width="7.32" height="7.89"/>
  <path class="cls-3" d="M48.08,177.73H40.76a0.5,0.5,0,0,1-.5-0.5v-7.89a0.5,0.5,0,0,1,.5-0.5h7.32a0.5,0.5,0,0,1,.5.5v7.89A0.5,0.5,0,0,1,48.08,177.73Zm-6.82-1h6.32v-6.89H41.26v6.89Z"/>
  <rect class="cls-6" x="40.76" y="191.83" width="7.32" height="7.89"/>
  <path class="cls-3" d="M48.08,200.22H40.76a0.5,0.5,0,0,1-.5-0.5v-7.89a0.5,0.5,0,0,1,.5-0.5h7.32a0.5,0.5,0,0,1,.5.5v7.89A0.5,0.5,0,0,1,48.08,200.22Zm-6.82-1h6.32v-6.89H41.26v6.89Z"/>
  <rect class="cls-6" x="51.67" y="180.58" width="7.32" height="7.89"/>
  <path class="cls-3" d="M59,189H51.67a0.5,0.5,0,0,1-.5-0.5v-7.89a0.5,0.5,0,0,1,.5-0.5H59a0.5,0.5,0,0,1,.5.5v7.89A0.5,0.5,0,0,1,59,189Zm-6.82-1h6.32v-6.89H52.17V188Z"/>
  <rect class="cls-6" x="51.67" y="169.34" width="7.32" height="7.89"/>
  <path class="cls-3" d="M59,177.73H51.67a0.5,0.5,0,0,1-.5-0.5v-7.89a0.5,0.5,0,0,1,.5-0.5H59a0.5,0.5,0,0,1,.5.5v7.89A0.5,0.5,0,0,1,59,177.73Zm-6.82-1h6.32v-6.89H52.17v6.89Z"/>
  <rect class="cls-6" x="51.67" y="191.83" width="7.32" height="7.89"/>
  <path class="cls-3" d="M59,200.22H51.67a0.5,0.5,0,0,1-.5-0.5v-7.89a0.5,0.5,0,0,1,.5-0.5H59a0.5,0.5,0,0,1,.5.5v7.89A0.5,0.5,0,0,1,59,200.22Zm-6.82-1h6.32v-6.89H52.17v6.89Z"/>
  <rect class="cls-6" x="62.59" y="180.58" width="7.32" height="7.89"/>
  <path class="cls-3" d="M69.91,189H62.59a0.5,0.5,0,0,1-.5-0.5v-7.89a0.5,0.5,0,0,1,.5-0.5h7.32a0.5,0.5,0,0,1,.5.5v7.89A0.5,0.5,0,0,1,69.91,189Zm-6.82-1h6.32v-6.89H63.09V188Z"/>
  <rect class="cls-6" x="62.59" y="169.34" width="7.32" height="7.89"/>
  <path class="cls-3" d="M69.91,177.73H62.59a0.5,0.5,0,0,1-.5-0.5v-7.89a0.5,0.5,0,0,1,.5-0.5h7.32a0.5,0.5,0,0,1,.5.5v7.89A0.5,0.5,0,0,1,69.91,177.73Zm-6.82-1h6.32v-6.89H63.09v6.89Z"/>
  <rect class="cls-6" x="62.59" y="191.83" width="7.32" height="7.89"/>
  <path class="cls-3" d="M69.91,200.22H62.59a0.5,0.5,0,0,1-.5-0.5v-7.89a0.5,0.5,0,0,1,.5-0.5h7.32a0.5,0.5,0,0,1,.5.5v7.89A0.5,0.5,0,0,1,69.91,200.22Zm-6.82-1h6.32v-6.89H63.09v6.89Z"/>
  <rect class="cls-6" x="73.51" y="180.58" width="7.32" height="7.89"/>
  <path class="cls-3" d="M80.83,189H73.51a0.5,0.5,0,0,1-.5-0.5v-7.89a0.5,0.5,0,0,1,.5-0.5h7.32a0.5,0.5,0,0,1,.5.5v7.89A0.5,0.5,0,0,1,80.83,189ZM74,188h6.32v-6.89H74V188Z"/>
  <rect class="cls-6" x="73.51" y="169.34" width="7.32" height="7.89"/>
  <path class="cls-3" d="M80.83,177.73H73.51a0.5,0.5,0,0,1-.5-0.5v-7.89a0.5,0.5,0,0,1,.5-0.5h7.32a0.5,0.5,0,0,1,.5.5v7.89A0.5,0.5,0,0,1,80.83,177.73Zm-6.82-1h6.32v-6.89H74v6.89Z"/>
  <rect class="cls-6" x="73.51" y="191.83" width="7.32" height="7.89"/>
  <path class="cls-3" d="M80.83,200.22H73.51a0.5,0.5,0,0,1-.5-0.5v-7.89a0.5,0.5,0,0,1,.5-0.5h7.32a0.5,0.5,0,0,1,.5.5v7.89A0.5,0.5,0,0,1,80.83,200.22Zm-6.82-1h6.32v-6.89H74v6.89Z"/>
  <rect class="cls-6" x="84.42" y="180.58" width="7.32" height="7.89"/>
  <path class="cls-3" d="M91.74,189H84.42a0.5,0.5,0,0,1-.5-0.5v-7.89a0.5,0.5,0,0,1,.5-0.5h7.32a0.5,0.5,0,0,1,.5.5v7.89A0.5,0.5,0,0,1,91.74,189Zm-6.82-1h6.32v-6.89H84.92V188Z"/>
  <rect class="cls-6" x="84.42" y="169.34" width="7.32" height="7.89"/>
  <path class="cls-3" d="M91.74,177.73H84.42a0.5,0.5,0,0,1-.5-0.5v-7.89a0.5,0.5,0,0,1,.5-0.5h7.32a0.5,0.5,0,0,1,.5.5v7.89A0.5,0.5,0,0,1,91.74,177.73Zm-6.82-1h6.32v-6.89H84.92v6.89Z"/>
  <rect class="cls-6" x="84.42" y="191.83" width="7.32" height="7.89"/>
  <path class="cls-3" d="M91.74,200.22H84.42a0.5,0.5,0,0,1-.5-0.5v-7.89a0.5,0.5,0,0,1,.5-0.5h7.32a0.5,0.5,0,0,1,.5.5v7.89A0.5,0.5,0,0,1,91.74,200.22Zm-6.82-1h6.32v-6.89H84.92v6.89Z"/>
  <rect class="cls-6" x="95.34" y="180.58" width="7.32" height="7.89"/>
  <path class="cls-3" d="M102.66,189H95.34a0.5,0.5,0,0,1-.5-0.5v-7.89a0.5,0.5,0,0,1,.5-0.5h7.32a0.5,0.5,0,0,1,.5.5v7.89A0.5,0.5,0,0,1,102.66,189Zm-6.82-1h6.32v-6.89H95.84V188Z"/>
  <rect class="cls-6" x="95.34" y="169.34" width="7.32" height="7.89"/>
  <path class="cls-3" d="M102.66,177.73H95.34a0.5,0.5,0,0,1-.5-0.5v-7.89a0.5,0.5,0,0,1,.5-0.5h7.32a0.5,0.5,0,0,1,.5.5v7.89A0.5,0.5,0,0,1,102.66,177.73Zm-6.82-1h6.32v-6.89H95.84v6.89Z"/>
  <rect class="cls-6" x="95.34" y="191.83" width="7.32" height="7.89"/>
  <path class="cls-3" d="M102.66,200.22H95.34a0.5,0.5,0,0,1-.5-0.5v-7.89a0.5,0.5,0,0,1,.5-0.5h7.32a0.5,0.5,0,0,1,.5.5v7.89A0.5,0.5,0,0,1,102.66,200.22Zm-6.82-1h6.32v-6.89H95.84v6.89Z"/>
  <rect class="cls-6" x="106.26" y="180.58" width="7.32" height="7.89"/>
  <path class="cls-3" d="M113.58,189h-7.32a0.5,0.5,0,0,1-.5-0.5v-7.89a0.5,0.5,0,0,1,.5-0.5h7.32a0.5,0.5,0,0,1,.5.5v7.89A0.5,0.5,0,0,1,113.58,189Zm-6.82-1h6.32v-6.89h-6.32V188Z"/>
  <rect class="cls-6" x="106.26" y="169.34" width="7.32" height="7.89"/>
  <path class="cls-3" d="M113.58,177.73h-7.32a0.5,0.5,0,0,1-.5-0.5v-7.89a0.5,0.5,0,0,1,.5-0.5h7.32a0.5,0.5,0,0,1,.5.5v7.89A0.5,0.5,0,0,1,113.58,177.73Zm-6.82-1h6.32v-6.89h-6.32v6.89Z"/>
  <rect class="cls-6" x="106.26" y="191.83" width="7.32" height="7.89"/>
  <path class="cls-3" d="M113.58,200.22h-7.32a0.5,0.5,0,0,1-.5-0.5v-7.89a0.5,0.5,0,0,1,.5-0.5h7.32a0.5,0.5,0,0,1,.5.5v7.89A0.5,0.5,0,0,1,113.58,200.22Zm-6.82-1h6.32v-6.89h-6.32v6.89Z"/>
  <polygon class="cls-5" points="102.66 203.07 95.34 203.07 91.74 203.07 84.42 203.07 80.83 203.07 73.51 203.07 69.91 203.07 62.59 203.07 58.99 203.07 51.67 203.07 48.08 203.07 47.69 203.07 40.76 203.07 40.76 210.96 47.69 210.96 48.08 210.96 51.67 210.96 58.99 210.96 62.59 210.96 69.91 210.96 73.51 210.96 80.83 210.96 84.42 210.96 91.74 210.96 95.34 210.96 102.66 210.96 113.47 210.96 113.47 203.07 102.66 203.07"/>
  <path class="cls-3" d="M113.47,211.46H40.76a0.5,0.5,0,0,1-.5-0.5v-7.89a0.5,0.5,0,0,1,.5-0.5h72.71a0.5,0.5,0,0,1,.5.5V211A0.5,0.5,0,0,1,113.47,211.46Zm-72.21-1H113v-6.89H41.26v6.89Z"/>
  <rect class="cls-6" x="117.17" y="180.58" width="7.32" height="7.89"/>
  <path class="cls-3" d="M124.49,189h-7.32a0.5,0.5,0,0,1-.5-0.5v-7.89a0.5,0.5,0,0,1,.5-0.5h7.32a0.5,0.5,0,0,1,.5.5v7.89A0.5,0.5,0,0,1,124.49,189Zm-6.82-1H124v-6.89h-6.32V188Z"/>
  <rect class="cls-6" x="117.17" y="169.34" width="7.32" height="7.89"/>
  <path class="cls-3" d="M124.49,177.73h-7.32a0.5,0.5,0,0,1-.5-0.5v-7.89a0.5,0.5,0,0,1,.5-0.5h7.32a0.5,0.5,0,0,1,.5.5v7.89A0.5,0.5,0,0,1,124.49,177.73Zm-6.82-1H124v-6.89h-6.32v6.89Z"/>
  <rect class="cls-6" x="117.17" y="191.83" width="7.32" height="7.89"/>
  <path class="cls-3" d="M124.49,200.22h-7.32a0.5,0.5,0,0,1-.5-0.5v-7.89a0.5,0.5,0,0,1,.5-0.5h7.32a0.5,0.5,0,0,1,.5.5v7.89A0.5,0.5,0,0,1,124.49,200.22Zm-6.82-1H124v-6.89h-6.32v6.89Z"/>
  <rect class="cls-6" x="117.17" y="203.07" width="7.32" height="7.89"/>
  <path class="cls-3" d="M124.49,211.46h-7.32a0.5,0.5,0,0,1-.5-0.5v-7.89a0.5,0.5,0,0,1,.5-0.5h7.32a0.5,0.5,0,0,1,.5.5V211A0.5,0.5,0,0,1,124.49,211.46Zm-6.82-1H124v-6.89h-6.32v6.89Z"/>
  <rect class="cls-6" x="128.09" y="180.58" width="7.32" height="7.89"/>
  <path class="cls-3" d="M135.41,189h-7.32a0.5,0.5,0,0,1-.5-0.5v-7.89a0.5,0.5,0,0,1,.5-0.5h7.32a0.5,0.5,0,0,1,.5.5v7.89A0.5,0.5,0,0,1,135.41,189Zm-6.82-1h6.32v-6.89h-6.32V188Z"/>
  <rect class="cls-6" x="128.09" y="169.34" width="7.32" height="7.89"/>
  <path class="cls-3" d="M135.41,177.73h-7.32a0.5,0.5,0,0,1-.5-0.5v-7.89a0.5,0.5,0,0,1,.5-0.5h7.32a0.5,0.5,0,0,1,.5.5v7.89A0.5,0.5,0,0,1,135.41,177.73Zm-6.82-1h6.32v-6.89h-6.32v6.89Z"/>
  <rect class="cls-6" x="128.09" y="191.83" width="7.32" height="7.89"/>
  <path class="cls-3" d="M135.41,200.22h-7.32a0.5,0.5,0,0,1-.5-0.5v-7.89a0.5,0.5,0,0,1,.5-0.5h7.32a0.5,0.5,0,0,1,.5.5v7.89A0.5,0.5,0,0,1,135.41,200.22Zm-6.82-1h6.32v-6.89h-6.32v6.89Z"/>
  <rect class="cls-6" x="128.09" y="203.07" width="7.32" height="7.89"/>
  <path class="cls-3" d="M135.41,211.46h-7.32a0.5,0.5,0,0,1-.5-0.5v-7.89a0.5,0.5,0,0,1,.5-0.5h7.32a0.5,0.5,0,0,1,.5.5V211A0.5,0.5,0,0,1,135.41,211.46Zm-6.82-1h6.32v-6.89h-6.32v6.89Z"/>
  <rect class="cls-6" x="139.01" y="180.58" width="7.32" height="7.89"/>
  <path class="cls-3" d="M146.33,189H139a0.5,0.5,0,0,1-.5-0.5v-7.89a0.5,0.5,0,0,1,.5-0.5h7.32a0.5,0.5,0,0,1,.5.5v7.89A0.5,0.5,0,0,1,146.33,189Zm-6.82-1h6.32v-6.89h-6.32V188Z"/>
  <rect class="cls-6" x="139.01" y="169.34" width="7.32" height="7.89"/>
  <path class="cls-3" d="M146.33,177.73H139a0.5,0.5,0,0,1-.5-0.5v-7.89a0.5,0.5,0,0,1,.5-0.5h7.32a0.5,0.5,0,0,1,.5.5v7.89A0.5,0.5,0,0,1,146.33,177.73Zm-6.82-1h6.32v-6.89h-6.32v6.89Z"/>
  <rect class="cls-6" x="139.01" y="191.83" width="7.32" height="7.89"/>
  <path class="cls-3" d="M146.33,200.22H139a0.5,0.5,0,0,1-.5-0.5v-7.89a0.5,0.5,0,0,1,.5-0.5h7.32a0.5,0.5,0,0,1,.5.5v7.89A0.5,0.5,0,0,1,146.33,200.22Zm-6.82-1h6.32v-6.89h-6.32v6.89Z"/>
  <rect class="cls-6" x="139.01" y="203.07" width="7.32" height="7.89"/>
  <path class="cls-3" d="M146.33,211.46H139a0.5,0.5,0,0,1-.5-0.5v-7.89a0.5,0.5,0,0,1,.5-0.5h7.32a0.5,0.5,0,0,1,.5.5V211A0.5,0.5,0,0,1,146.33,211.46Zm-6.82-1h6.32v-6.89h-6.32v6.89Z"/>
  <rect class="cls-6" x="149.92" y="180.58" width="7.32" height="7.89"/>
  <path class="cls-3" d="M157.24,189h-7.32a0.5,0.5,0,0,1-.5-0.5v-7.89a0.5,0.5,0,0,1,.5-0.5h7.32a0.5,0.5,0,0,1,.5.5v7.89A0.5,0.5,0,0,1,157.24,189Zm-6.82-1h6.32v-6.89h-6.32V188Z"/>
  <rect class="cls-6" x="149.92" y="169.34" width="7.32" height="7.89"/>
  <path class="cls-3" d="M157.24,177.73h-7.32a0.5,0.5,0,0,1-.5-0.5v-7.89a0.5,0.5,0,0,1,.5-0.5h7.32a0.5,0.5,0,0,1,.5.5v7.89A0.5,0.5,0,0,1,157.24,177.73Zm-6.82-1h6.32v-6.89h-6.32v6.89Z"/>
  <rect class="cls-6" x="149.92" y="191.83" width="7.32" height="7.89"/>
  <path class="cls-3" d="M157.24,200.22h-7.32a0.5,0.5,0,0,1-.5-0.5v-7.89a0.5,0.5,0,0,1,.5-0.5h7.32a0.5,0.5,0,0,1,.5.5v7.89A0.5,0.5,0,0,1,157.24,200.22Zm-6.82-1h6.32v-6.89h-6.32v6.89Z"/>
  <rect class="cls-6" x="149.92" y="203.07" width="7.32" height="7.89"/>
  <path class="cls-3" d="M157.24,211.46h-7.32a0.5,0.5,0,0,1-.5-0.5v-7.89a0.5,0.5,0,0,1,.5-0.5h7.32a0.5,0.5,0,0,1,.5.5V211A0.5,0.5,0,0,1,157.24,211.46Zm-6.82-1h6.32v-6.89h-6.32v6.89Z"/>
  <rect class="cls-6" x="160.84" y="180.58" width="7.32" height="7.89"/>
  <path class="cls-3" d="M168.16,189h-7.32a0.5,0.5,0,0,1-.5-0.5v-7.89a0.5,0.5,0,0,1,.5-0.5h7.32a0.5,0.5,0,0,1,.5.5v7.89A0.5,0.5,0,0,1,168.16,189Zm-6.82-1h6.32v-6.89h-6.32V188Z"/>
  <rect class="cls-6" x="160.84" y="169.34" width="7.32" height="7.89"/>
  <path class="cls-3" d="M168.16,177.73h-7.32a0.5,0.5,0,0,1-.5-0.5v-7.89a0.5,0.5,0,0,1,.5-0.5h7.32a0.5,0.5,0,0,1,.5.5v7.89A0.5,0.5,0,0,1,168.16,177.73Zm-6.82-1h6.32v-6.89h-6.32v6.89Z"/>
  <rect class="cls-6" x="160.84" y="191.83" width="7.32" height="7.89"/>
  <path class="cls-3" d="M168.16,200.22h-7.32a0.5,0.5,0,0,1-.5-0.5v-7.89a0.5,0.5,0,0,1,.5-0.5h7.32a0.5,0.5,0,0,1,.5.5v7.89A0.5,0.5,0,0,1,168.16,200.22Zm-6.82-1h6.32v-6.89h-6.32v6.89Z"/>
  <rect class="cls-6" x="160.84" y="203.07" width="7.32" height="7.89"/>
  <path class="cls-3" d="M168.16,211.46h-7.32a0.5,0.5,0,0,1-.5-0.5v-7.89a0.5,0.5,0,0,1,.5-0.5h7.32a0.5,0.5,0,0,1,.5.5V211A0.5,0.5,0,0,1,168.16,211.46Zm-6.82-1h6.32v-6.89h-6.32v6.89Z"/>
  <rect class="cls-6" x="171.76" y="169.34" width="7.32" height="7.89"/>
  <path class="cls-3" d="M179.08,177.73h-7.32a0.5,0.5,0,0,1-.5-0.5v-7.89a0.5,0.5,0,0,1,.5-0.5h7.32a0.5,0.5,0,0,1,.5.5v7.89A0.5,0.5,0,0,1,179.08,177.73Zm-6.82-1h6.32v-6.89h-6.32v6.89Z"/>
  <polygon class="cls-6" points="171.76 180.58 171.76 187.75 171.76 188.48 171.76 199.72 179.08 199.72 179.08 188.48 179.08 187.75 179.08 180.58 171.76 180.58"/>
  <path class="cls-3" d="M179.08,200.22h-7.32a0.5,0.5,0,0,1-.5-0.5V180.58a0.5,0.5,0,0,1,.5-0.5h7.32a0.5,0.5,0,0,1,.5.5v19.14A0.5,0.5,0,0,1,179.08,200.22Zm-6.82-1h6.32V181.08h-6.32v18.14Z"/>
  <rect class="cls-6" x="171.76" y="203.07" width="7.32" height="7.89"/>
  <path class="cls-3" d="M179.08,211.46h-7.32a0.5,0.5,0,0,1-.5-0.5v-7.89a0.5,0.5,0,0,1,.5-0.5h7.32a0.5,0.5,0,0,1,.5.5V211A0.5,0.5,0,0,1,179.08,211.46Zm-6.82-1h6.32v-6.89h-6.32v6.89Z"/>
  <g id="_Group_" data-name="&lt;Group&gt;">
    <polygon class="cls-6" points="247 207.3 241.87 207.3 241.87 202.17 240.17 202.17 240.17 207.3 235.03 207.3 235.03 209 240.17 209 240.17 214.13 241.87 214.13 241.87 209 247 209 247 207.3"/>
  </g>
  <g id="_Group_2" data-name="&lt;Group&gt;">
    <polygon class="cls-6" points="64 25.3 58.87 25.3 58.87 20.17 57.17 20.17 57.17 25.3 52.03 25.3 52.03 27 57.17 27 57.17 32.13 58.87 32.13 58.87 27 64 27 64 25.3"/>
  </g>
  <g id="_Group_3" data-name="&lt;Group&gt;">
    <polygon class="cls-6" points="36.33 134.8 31.2 134.8 31.2 129.67 29.5 129.67 29.5 134.8 24.37 134.8 24.37 136.5 29.5 136.5 29.5 141.63 31.2 141.63 31.2 136.5 36.33 136.5 36.33 134.8"/>
  </g>
  <line class="cls-6" x1="244.37" y1="189.21" x2="243" y2="190.58"/>
  <path class="cls-3" d="M243,191.08a0.5,0.5,0,0,1-.35-0.85l1.37-1.37a0.5,0.5,0,0,1,.71.71l-1.37,1.37A0.5,0.5,0,0,1,243,191.08Z"/>
  <line class="cls-6" x1="240.08" y1="193.5" x2="238.71" y2="194.87"/>
  <path class="cls-3" d="M238.71,195.37a0.5,0.5,0,0,1-.35-0.85l1.37-1.37a0.5,0.5,0,1,1,.71.71l-1.37,1.37A0.5,0.5,0,0,1,238.71,195.37Z"/>
  <line class="cls-6" x1="244.37" y1="194.87" x2="243" y2="193.5"/>
  <path class="cls-3" d="M244.37,195.37a0.5,0.5,0,0,1-.35-0.15l-1.37-1.37a0.5,0.5,0,0,1,.71-0.71l1.37,1.37A0.5,0.5,0,0,1,244.37,195.37Z"/>
  <line class="cls-6" x1="240.08" y1="190.58" x2="238.71" y2="189.21"/>
  <path class="cls-3" d="M240.08,191.08a0.5,0.5,0,0,1-.35-0.15l-1.37-1.37a0.5,0.5,0,1,1,.71-0.71l1.37,1.37A0.5,0.5,0,0,1,240.08,191.08Z"/>
  <line class="cls-6" x1="233.87" y1="76.71" x2="232.5" y2="78.08"/>
  <path class="cls-3" d="M232.5,78.58a0.5,0.5,0,0,1-.35-0.85l1.37-1.37a0.5,0.5,0,1,1,.71.71l-1.37,1.37A0.5,0.5,0,0,1,232.5,78.58Z"/>
  <line class="cls-6" x1="229.58" y1="81" x2="228.21" y2="82.37"/>
  <path class="cls-3" d="M228.21,82.87a0.5,0.5,0,0,1-.35-0.85l1.37-1.37a0.5,0.5,0,0,1,.71.71l-1.37,1.37A0.5,0.5,0,0,1,228.21,82.87Z"/>
  <line class="cls-6" x1="233.87" y1="82.37" x2="232.5" y2="81"/>
  <path class="cls-3" d="M233.87,82.87a0.5,0.5,0,0,1-.35-0.15l-1.37-1.37a0.5,0.5,0,1,1,.71-0.71L234.22,82A0.5,0.5,0,0,1,233.87,82.87Z"/>
  <line class="cls-6" x1="229.58" y1="78.08" x2="228.21" y2="76.71"/>
  <path class="cls-3" d="M229.58,78.58a0.5,0.5,0,0,1-.35-0.15l-1.37-1.37a0.5,0.5,0,0,1,.71-0.71l1.37,1.37A0.5,0.5,0,0,1,229.58,78.58Z"/>
  <line class="cls-6" x1="69.37" y1="133.21" x2="68" y2="134.58"/>
  <path class="cls-3" d="M68,135.08a0.5,0.5,0,0,1-.35-0.85L69,132.86a0.5,0.5,0,1,1,.71.71l-1.37,1.37A0.5,0.5,0,0,1,68,135.08Z"/>
  <line class="cls-6" x1="65.08" y1="137.5" x2="63.71" y2="138.87"/>
  <path class="cls-3" d="M63.71,139.37a0.5,0.5,0,0,1-.35-0.85l1.37-1.37a0.5,0.5,0,1,1,.71.71l-1.37,1.37A0.5,0.5,0,0,1,63.71,139.37Z"/>
  <line class="cls-6" x1="69.37" y1="138.87" x2="68" y2="137.5"/>
  <path class="cls-3" d="M69.37,139.37a0.5,0.5,0,0,1-.35-0.15l-1.37-1.37a0.5,0.5,0,0,1,.71-0.71l1.37,1.37A0.5,0.5,0,0,1,69.37,139.37Z"/>
  <line class="cls-6" x1="65.08" y1="134.58" x2="63.71" y2="133.21"/>
  <path class="cls-3" d="M65.08,135.08a0.5,0.5,0,0,1-.35-0.15l-1.37-1.37a0.5,0.5,0,0,1,.71-0.71l1.37,1.37A0.5,0.5,0,0,1,65.08,135.08Z"/>
  <line class="cls-6" x1="47.5" y1="23.34" x2="46.13" y2="24.71"/>
  <path class="cls-3" d="M46.13,25.21a0.5,0.5,0,0,1-.35-0.85L47.15,23a0.5,0.5,0,0,1,.71.71l-1.37,1.37A0.5,0.5,0,0,1,46.13,25.21Z"/>
  <line class="cls-6" x1="43.21" y1="27.63" x2="41.84" y2="29"/>
  <path class="cls-3" d="M41.84,29.5a0.5,0.5,0,0,1-.35-0.85l1.37-1.37a0.5,0.5,0,1,1,.71.71l-1.37,1.37A0.5,0.5,0,0,1,41.84,29.5Z"/>
  <line class="cls-6" x1="47.5" y1="29" x2="46.13" y2="27.63"/>
  <path class="cls-3" d="M47.5,29.5a0.5,0.5,0,0,1-.35-0.15L45.78,28a0.5,0.5,0,0,1,.71-0.71l1.37,1.37A0.5,0.5,0,0,1,47.5,29.5Z"/>
  <line class="cls-6" x1="43.21" y1="24.71" x2="41.84" y2="23.34"/>
  <path class="cls-3" d="M43.21,25.21a0.5,0.5,0,0,1-.35-0.15l-1.37-1.37A0.5,0.5,0,0,1,42.19,23l1.37,1.37A0.5,0.5,0,0,1,43.21,25.21Z"/>
  <circle class="cls-6" cx="195.01" cy="167.73" r="3.43"/>
  <circle class="cls-6" cx="55.01" cy="135.73" r="3.43"/>
  <g id="mouse">
    <rect class="cls-6" x="200.79" y="168.39" width="27.7" height="46.93" rx="10.16" ry="10.16"/>
    <path class="cls-3" d="M218.33,215.83h-7.39a10.67,10.67,0,0,1-10.66-10.66V178.55a10.67,10.67,0,0,1,10.66-10.66h7.39A10.67,10.67,0,0,1,229,178.55v26.62A10.67,10.67,0,0,1,218.33,215.83Zm-7.39-46.93a9.67,9.67,0,0,0-9.66,9.66v26.62a9.67,9.67,0,0,0,9.66,9.66h7.39a9.67,9.67,0,0,0,9.66-9.66V178.55a9.67,9.67,0,0,0-9.66-9.66h-7.39Z"/>
    <path class="cls-6" d="M218.33,215.7h-7.39a10.54,10.54,0,0,1-10.53-10.53V178.55A10.54,10.54,0,0,1,210.94,168h7.39a10.54,10.54,0,0,1,10.53,10.53v26.62A10.54,10.54,0,0,1,218.33,215.7Z" style="fill: rgb(164, 164, 164);"/>
    <path class="cls-3" d="M218.33,216.2h-7.39a11,11,0,0,1-11-11V178.55a11,11,0,0,1,11-11h7.39a11,11,0,0,1,11,11v26.62A11,11,0,0,1,218.33,216.2Zm-7.39-47.67a10,10,0,0,0-10,10v26.62a10,10,0,0,0,10,10h7.39a10,10,0,0,0,10-10V178.55a10,10,0,0,0-10-10h-7.39Z"/>
    <path class="cls-6" d="M216.53,183.55a0.8,0.8,0,0,1-.56.24l-2.42,0-0.19,0a0.75,0.75,0,0,1-.37-0.2,0.65,0.65,0,0,1-.16-0.23,0.72,0.72,0,0,1-.08-0.33c0-.85,0-1.7,0-2.55s0-1.84,0-2.77a0.86,0.86,0,0,1,.22-0.64,0.81,0.81,0,0,1,.37-0.21l0.19,0,2.42,0a0.78,0.78,0,0,1,.56.22,0.88,0.88,0,0,1,.25.63q0,1.38,0,2.77t0,2.55a0.76,0.76,0,0,1-.07.33A0.74,0.74,0,0,1,216.53,183.55Z"/>
    <path class="cls-3" d="M213.54,184.33a1.31,1.31,0,0,1-.89-0.37,1.14,1.14,0,0,1-.27-0.39,1.17,1.17,0,0,1-.12-0.52c0-.85,0-1.7,0-2.55s0-1.84,0-2.77a1.33,1.33,0,0,1,.36-1,1.31,1.31,0,0,1,.6-0.35,1.28,1.28,0,0,1,.31,0l2.41,0h0a1.29,1.29,0,0,1,.92.36,1.35,1.35,0,0,1,.4,1l0,2.78c0,0.85,0,1.7,0,2.55a1.24,1.24,0,0,1-.11.54,1.22,1.22,0,0,1-.25.37,1.3,1.3,0,0,1-.9.39l-2.42,0h0Zm2.34-7-2.42,0a0.35,0.35,0,0,0-.21.09,0.36,0.36,0,0,0-.08.28q0,1.38,0,2.76t0,2.56a0.23,0.23,0,0,0,0,.11l0.07,0.1a0.25,0.25,0,0,0,.13.07h0.07v0l2.42,0a0.3,0.3,0,0,0,.21-0.09l0.06-.09a0.25,0.25,0,0,0,0-.11q0-1.28,0-2.55l0-2.77a0.37,0.37,0,0,0-.09-0.28A0.28,0.28,0,0,0,215.88,177.32Z"/>
    <path class="cls-5" d="M213.55,184.2a1.11,1.11,0,0,1-.27,0,1.12,1.12,0,0,1-.54-0.29,1.06,1.06,0,0,1-.25-0.35,1,1,0,0,1-.11-0.47c0-.85,0-1.7,0-2.55s0-1.84,0-2.77a1.21,1.21,0,0,1,.32-0.9,1.15,1.15,0,0,1,.54-0.32,1.2,1.2,0,0,1,.28,0l2.41,0h0a1.15,1.15,0,0,1,.82.33,1.22,1.22,0,0,1,.36.88l0,2.78c0,0.85,0,1.7,0,2.55a1.13,1.13,0,0,1-.1.49,1.09,1.09,0,0,1-.23.34,1.16,1.16,0,0,1-.81.35l-2.42,0h0Z"/>
    <path class="cls-3" d="M213.56,184.7h0a1.64,1.64,0,0,1-.39,0,1.62,1.62,0,0,1-.76-0.41,1.55,1.55,0,0,1-.36-0.52,1.45,1.45,0,0,1-.14-0.66c0-.84,0-1.7,0-2.55s0-1.84,0-2.77a1.7,1.7,0,0,1,.46-1.25A1.65,1.65,0,0,1,213,176a1.71,1.71,0,0,1,.41-0.05l2.41,0a1.67,1.67,0,0,1,1.18.47,1.72,1.72,0,0,1,.5,1.22l0,2.79c0,0.85,0,1.7,0,2.55a1.63,1.63,0,0,1-.15.71,1.56,1.56,0,0,1-.33.48,1.65,1.65,0,0,1-1.16.5l-2.42,0h0Zm2.3-7.75-2.41,0-0.17,0a0.64,0.64,0,0,0-.3.18,0.7,0.7,0,0,0-.18.54c0,0.92,0,1.85,0,2.76s0,1.71,0,2.55a0.56,0.56,0,0,0,0,.24,0.67,0.67,0,0,0,.15.23,0.62,0.62,0,0,0,.29.16l0.17,0v0l2.42,0a0.66,0.66,0,0,0,.47-0.2,0.59,0.59,0,0,0,.13-0.19,0.64,0.64,0,0,0,.06-0.28c0-.85,0-1.7,0-2.55l0-2.78a0.7,0.7,0,0,0-.2-0.53A0.66,0.66,0,0,0,215.86,176.95Z"/>
  </g>
  <path class="cls-3" d="M214.68,176.43a0.5,0.5,0,0,1-.5-0.5v-7.25a0.5,0.5,0,0,1,1,0v7.25A0.5,0.5,0,0,1,214.68,176.43Z"/>
  <path class="cls-3" d="M215.06,168.72l-0.14,0a0.5,0.5,0,0,1-.34-0.62,7.43,7.43,0,0,1,7.07-5.26h19.21c3.57,0,5.38-1.3,5.38-3.85s-1.81-3.85-5.38-3.85H193.6a4.14,4.14,0,1,1,0-8.28h52.67a0.5,0.5,0,0,1,0,1H193.6a3.14,3.14,0,1,0,0,6.28h47.26c4.12,0,6.38,1.72,6.38,4.85s-2.27,4.85-6.38,4.85H221.65a6.42,6.42,0,0,0-6.11,4.55A0.5,0.5,0,0,1,215.06,168.72Z"/>
  <rect class="cls-7" x="56.93" y="111.82" width="12.3" height="80.89" transform="matrix(0, 1, -1, 0, 215.350006, 89.18)" style="fill: rgb(229, 83, 129);"/>
  <path class="cls-3" d="M103.53,158.92H22.64a0.5,0.5,0,0,1-.5-0.5v-12.3a0.5,0.5,0,0,1,.5-0.5h80.89a0.5,0.5,0,0,1,.5.5v12.3A0.5,0.5,0,0,1,103.53,158.92Zm-80.39-1H103v-11.3H23.14v11.3Z"/>
  <path class="cls-3" d="M98.19,151.19a0.5,0.5,0,0,1-.5-0.5v-4.57a0.5,0.5,0,1,1,1,0v4.57A0.5,0.5,0,0,1,98.19,151.19Z"/>
  <path class="cls-3" d="M92.79,151.19a0.5,0.5,0,0,1-.5-0.5v-4.57a0.5,0.5,0,1,1,1,0v4.57A0.5,0.5,0,0,1,92.79,151.19Z"/>
  <path class="cls-3" d="M87.39,151.19a0.5,0.5,0,0,1-.5-0.5v-4.57a0.5,0.5,0,1,1,1,0v4.57A0.5,0.5,0,0,1,87.39,151.19Z"/>
  <path class="cls-3" d="M82,151.19a0.5,0.5,0,0,1-.5-0.5v-4.57a0.5,0.5,0,0,1,1,0v4.57A0.5,0.5,0,0,1,82,151.19Z"/>
  <path class="cls-3" d="M76.59,151.19a0.5,0.5,0,0,1-.5-0.5v-4.57a0.5,0.5,0,1,1,1,0v4.57A0.5,0.5,0,0,1,76.59,151.19Z"/>
  <path class="cls-3" d="M71.19,151.19a0.5,0.5,0,0,1-.5-0.5v-4.57a0.5,0.5,0,1,1,1,0v4.57A0.5,0.5,0,0,1,71.19,151.19Z"/>
  <path class="cls-3" d="M65.79,151.19a0.5,0.5,0,0,1-.5-0.5v-4.57a0.5,0.5,0,1,1,1,0v4.57A0.5,0.5,0,0,1,65.79,151.19Z"/>
  <line class="cls-6" x1="60.39" y1="146.11" x2="60.39" y2="150.69"/>
  <path class="cls-3" d="M60.39,151.19h0a0.5,0.5,0,0,1-.5-0.5v-4.57a0.5,0.5,0,0,1,.5-0.5h0a0.5,0.5,0,0,1,.5.5v4.57A0.5,0.5,0,0,1,60.39,151.19Z"/>
  <path class="cls-3" d="M55,151.19a0.5,0.5,0,0,1-.5-0.5v-4.57a0.5,0.5,0,1,1,1,0v4.57A0.5,0.5,0,0,1,55,151.19Z"/>
  <path class="cls-3" d="M49.59,151.19a0.5,0.5,0,0,1-.5-0.5v-4.57a0.5,0.5,0,1,1,1,0v4.57A0.5,0.5,0,0,1,49.59,151.19Z"/>
  <path class="cls-3" d="M44.19,151.19a0.5,0.5,0,0,1-.5-0.5v-4.57a0.5,0.5,0,1,1,1,0v4.57A0.5,0.5,0,0,1,44.19,151.19Z"/>
  <path class="cls-3" d="M38.79,151.19a0.5,0.5,0,0,1-.5-0.5v-4.57a0.5,0.5,0,1,1,1,0v4.57A0.5,0.5,0,0,1,38.79,151.19Z"/>
  <path class="cls-3" d="M33.39,151.19a0.5,0.5,0,0,1-.5-0.5v-4.57a0.5,0.5,0,1,1,1,0v4.57A0.5,0.5,0,0,1,33.39,151.19Z"/>
  <path class="cls-3" d="M28,151.19a0.5,0.5,0,0,1-.5-0.5v-4.57a0.5,0.5,0,1,1,1,0v4.57A0.5,0.5,0,0,1,28,151.19Z"/>
  <path class="cls-7" d="M310,203.83a11.76,11.76,0,0,1-11.77,11.77H261V125h37.26A11.76,11.76,0,0,1,310,136.75v67.08Z" style="fill: rgb(229, 83, 129);"/>
  <path class="cls-3" d="M298.22,216.1H261a0.5,0.5,0,0,1-.5-0.5V125a0.5,0.5,0,0,1,.5-0.5h37.26a12.26,12.26,0,0,1,12.27,12.27v67.08A12.26,12.26,0,0,1,298.22,216.1Zm-36.76-1h36.76a11.26,11.26,0,0,0,11.27-11.27V136.75a11.26,11.26,0,0,0-11.27-11.27H261.46V215.1Z"/>
  <rect class="cls-8" x="260.96" y="152.23" width="49.03" height="35.62" style="fill: rgb(0, 132, 165);"/>
  <path class="cls-3" d="M310,188.35H261a0.5,0.5,0,0,1-.5-0.5V152.23a0.5,0.5,0,0,1,.5-0.5h49a0.5,0.5,0,0,1,.5.5v35.62A0.5,0.5,0,0,1,310,188.35Zm-48.53-1h48V152.73h-48v34.62Z"/>
  <rect class="cls-5" x="253.45" y="124.99" width="7.51" height="90.61"/>
  <path class="cls-3" d="M261,216.1h-7.51a0.5,0.5,0,0,1-.5-0.5V125a0.5,0.5,0,0,1,.5-0.5H261a0.5,0.5,0,0,1,.5.5V215.6A0.5,0.5,0,0,1,261,216.1Zm-7-1h6.51V125.49h-6.51V215.1Z"/>
  <rect class="cls-6" x="295.48" y="124.99" width="3.07" height="90.61"/>
  <path class="cls-3" d="M298.55,216.1h-3.07a0.5,0.5,0,0,1-.5-0.5V125a0.5,0.5,0,0,1,.5-0.5h3.07a0.5,0.5,0,0,1,.5.5V215.6A0.5,0.5,0,0,1,298.55,216.1Zm-2.57-1h2.07V125.49H296V215.1Z"/>
  <rect class="cls-6" x="266.35" y="157.34" width="24.63" height="3.06"/>
  <path class="cls-3" d="M291,160.9H266.35a0.5,0.5,0,0,1-.5-0.5v-3.06a0.5,0.5,0,0,1,.5-0.5H291a0.5,0.5,0,0,1,.5.5v3.06A0.5,0.5,0,0,1,291,160.9Zm-24.13-1h23.63v-2.06H266.85v2.06Z"/>
  <rect class="cls-6" x="266.35" y="162.92" width="24.63" height="3.06"/>
  <path class="cls-3" d="M291,166.47H266.35a0.5,0.5,0,0,1-.5-0.5v-3.06a0.5,0.5,0,0,1,.5-0.5H291a0.5,0.5,0,0,1,.5.5V166A0.5,0.5,0,0,1,291,166.47Zm-24.13-1h23.63v-2.06H266.85v2.06Z"/>
  <path class="cls-6" d="M60.53,125.64H23.62V88.73h36.9v36.91Z" style="fill: rgb(164, 164, 164);"/>
  <path class="cls-3" d="M60.53,126.14H23.62a0.5,0.5,0,0,1-.5-0.5V88.73a0.5,0.5,0,0,1,.5-0.5h36.9a0.5,0.5,0,0,1,.5.5v36.91A0.5,0.5,0,0,1,60.53,126.14Zm-36.4-1H60V89.23H24.12v35.91Z"/>
  <path class="cls-3" d="M60.5,126.17a0.5,0.5,0,0,1-.35-0.15L23.23,89.1a0.5,0.5,0,0,1,.71-0.71l36.92,36.92A0.5,0.5,0,0,1,60.5,126.17Z"/>
  <path class="cls-3" d="M23.7,125.92a0.5,0.5,0,0,1-.35-0.85L59.76,88.65a0.5,0.5,0,1,1,.71.71L24.05,125.77A0.5,0.5,0,0,1,23.7,125.92Z"/>
  <rect class="cls-7" x="23.34" y="45.17" width="36.99" height="36.99" style="fill: rgb(229, 83, 129);"/>
  <path class="cls-3" d="M60.33,82.66h-37a0.5,0.5,0,0,1-.5-0.5v-37a0.5,0.5,0,0,1,.5-0.5h37a0.5,0.5,0,0,1,.5.5v37A0.5,0.5,0,0,1,60.33,82.66Zm-36.49-1h36v-36h-36v36Z"/>
  <rect class="cls-6" x="29.77" y="51.65" width="24.14" height="4.07"/>
  <path class="cls-3" d="M53.91,56.22H29.77a0.5,0.5,0,0,1-.5-0.5V51.65a0.5,0.5,0,0,1,.5-0.5H53.91a0.5,0.5,0,0,1,.5.5v4.07A0.5,0.5,0,0,1,53.91,56.22Zm-23.64-1H53.41V52.15H30.27v3.07Z"/>
  <path class="cls-3" d="M53.83,60.67H30a0.5,0.5,0,0,1,0-1H53.83A0.5,0.5,0,0,1,53.83,60.67Z"/>
  <path class="cls-3" d="M53.83,63.67H30a0.5,0.5,0,0,1,0-1H53.83A0.5,0.5,0,0,1,53.83,63.67Z"/>
  <path class="cls-3" d="M53.83,66.67H30a0.5,0.5,0,0,1,0-1H53.83A0.5,0.5,0,0,1,53.83,66.67Z"/>
  <path class="cls-3" d="M42,69.67H30a0.5,0.5,0,0,1,0-1H42A0.5,0.5,0,0,1,42,69.67Z"/>
  <path class="cls-3" d="M101.5,45.67h-5a0.5,0.5,0,0,1,0-1h5A0.5,0.5,0,0,1,101.5,45.67Zm-9,0h-5a0.5,0.5,0,0,1,0-1h5A0.5,0.5,0,0,1,92.5,45.67Zm-9,0h-5a0.5,0.5,0,0,1,0-1h5A0.5,0.5,0,0,1,83.5,45.67Zm-9,0h-5a0.5,0.5,0,0,1,0-1h5A0.5,0.5,0,0,1,74.5,45.67Zm-9,0h-5a0.5,0.5,0,0,1,0-1h5A0.5,0.5,0,0,1,65.5,45.67Z"/>
  <path class="cls-3" d="M101.5,82.67h-5a0.5,0.5,0,0,1,0-1h5A0.5,0.5,0,0,1,101.5,82.67Zm-9,0h-5a0.5,0.5,0,0,1,0-1h5A0.5,0.5,0,0,1,92.5,82.67Zm-9,0h-5a0.5,0.5,0,0,1,0-1h5A0.5,0.5,0,0,1,83.5,82.67Zm-9,0h-5a0.5,0.5,0,0,1,0-1h5A0.5,0.5,0,0,1,74.5,82.67Zm-9,0h-5a0.5,0.5,0,0,1,0-1h5A0.5,0.5,0,0,1,65.5,82.67Z"/>
  <path class="cls-3" d="M131.85,152.67h-5a0.5,0.5,0,0,1,0-1h5A0.5,0.5,0,0,1,131.85,152.67Zm-9,0h-5a0.5,0.5,0,1,1,0-1h5A0.5,0.5,0,1,1,122.85,152.67Zm-9,0h-5a0.5,0.5,0,0,1,0-1h5A0.5,0.5,0,0,1,113.85,152.67Z"/>
  <path class="cls-3" d="M65,36.67H60a0.5,0.5,0,0,1,0-1h5A0.5,0.5,0,0,1,65,36.67Zm-9,0H51a0.5,0.5,0,0,1,0-1h5A0.5,0.5,0,0,1,56,36.67Zm-9,0H42a0.5,0.5,0,0,1,0-1h5A0.5,0.5,0,0,1,47,36.67Zm-9,0H33a0.5,0.5,0,0,1,0-1h5A0.5,0.5,0,0,1,38,36.67Zm-9,0H24a0.5,0.5,0,0,1,0-1h5A0.5,0.5,0,0,1,29,36.67Z"/>
  <rect class="cls-6" x="253.611" y="19.29" width="56.08" height="98.69" style="fill-opacity: 0;"/>
  <path class="cls-3" d="M309.5,118.48H253.41a0.5,0.5,0,0,1-.5-0.5V19.29a0.5,0.5,0,0,1,.5-0.5H309.5a0.5,0.5,0,0,1,.5.5V118A0.5,0.5,0,0,1,309.5,118.48Zm-55.58-1H309V19.79H253.91v97.69Z"/>
  <rect class="cls-5" x="253.41" y="19.11" width="56.08" height="5.39" style="fill: rgb(164, 164, 164);"/>
  <path class="cls-3" d="M309.5,25H253.41a0.5,0.5,0,0,1-.5-0.5V19.11a0.5,0.5,0,0,1,.5-0.5H309.5a0.5,0.5,0,0,1,.5.5V24.5A0.5,0.5,0,0,1,309.5,25Zm-55.58-1H309V19.61H253.91V24Z"/>
  <rect class="cls-6" x="259.34" y="66.5" width="44.14" height="3.66"/>
  <path class="cls-3" d="M303.48,70.66H259.34a0.5,0.5,0,0,1-.5-0.5V66.5a0.5,0.5,0,0,1,.5-0.5h44.14a0.5,0.5,0,0,1,.5.5v3.66A0.5,0.5,0,0,1,303.48,70.66Zm-43.64-1H303V67H259.84v2.66Z"/>
  <rect class="cls-5" x="259.34" y="32.56" width="44.14" height="26.93"/>
  <path class="cls-3" d="M303.48,60H259.34a0.5,0.5,0,0,1-.5-0.5V32.56a0.5,0.5,0,0,1,.5-0.5h44.14a0.5,0.5,0,0,1,.5.5V59.5A0.5,0.5,0,0,1,303.48,60Zm-43.64-1H303V33.06H259.84V59Z"/>
  <path class="cls-3" d="M302.75,94.25h-43.5a0.5,0.5,0,0,1,0-1h43.5A0.5,0.5,0,0,1,302.75,94.25Z"/>
  <path class="cls-3" d="M302.75,98.92h-43.5a0.5,0.5,0,0,1,0-1h43.5A0.5,0.5,0,0,1,302.75,98.92Z"/>
  <path class="cls-3" d="M302.75,103.58h-43.5a0.5,0.5,0,0,1,0-1h43.5A0.5,0.5,0,0,1,302.75,103.58Z"/>
  <path class="cls-3" d="M302.75,108.25h-43.5a0.5,0.5,0,0,1,0-1h43.5A0.5,0.5,0,0,1,302.75,108.25Z"/>
  <rect class="cls-6" x="259.11" y="75.27" width="11.54" height="11.54"/>
  <path class="cls-3" d="M270.65,87.31H259.11a0.5,0.5,0,0,1-.5-0.5V75.27a0.5,0.5,0,0,1,.5-0.5h11.54a0.5,0.5,0,0,1,.5.5V86.81A0.5,0.5,0,0,1,270.65,87.31Zm-11-1h10.54V75.77H259.61V86.31Z"/>
  <line class="cls-6" x1="270.65" y1="75.27" x2="259.11" y2="86.81"/>
  <path class="cls-3" d="M259.11,87.31a0.5,0.5,0,0,1-.35-0.85L270.3,74.92a0.5,0.5,0,0,1,.71.71L259.46,87.17A0.5,0.5,0,0,1,259.11,87.31Z"/>
  <line class="cls-6" x1="270.65" y1="86.81" x2="259.11" y2="75.27"/>
  <path class="cls-3" d="M270.65,87.31a0.5,0.5,0,0,1-.35-0.15L258.76,75.62a0.5,0.5,0,0,1,.71-0.71L271,86.46A0.5,0.5,0,0,1,270.65,87.31Z"/>
  <rect class="cls-6" x="275.44" y="75.27" width="11.54" height="11.54"/>
  <path class="cls-3" d="M287,87.31H275.44a0.5,0.5,0,0,1-.5-0.5V75.27a0.5,0.5,0,0,1,.5-0.5H287a0.5,0.5,0,0,1,.5.5V86.81A0.5,0.5,0,0,1,287,87.31Zm-11-1h10.54V75.77H275.94V86.31Z"/>
  <line class="cls-6" x1="286.98" y1="75.27" x2="275.44" y2="86.81"/>
  <path class="cls-3" d="M275.44,87.31a0.5,0.5,0,0,1-.35-0.85l11.54-11.54a0.5,0.5,0,0,1,.71.71L275.79,87.17A0.5,0.5,0,0,1,275.44,87.31Z"/>
  <line class="cls-6" x1="286.98" y1="86.81" x2="275.44" y2="75.27"/>
  <path class="cls-3" d="M287,87.31a0.5,0.5,0,0,1-.35-0.15L275.08,75.62a0.5,0.5,0,0,1,.71-0.71l11.54,11.54A0.5,0.5,0,0,1,287,87.31Z"/>
  <rect class="cls-6" x="291.76" y="75.27" width="11.54" height="11.54"/>
  <path class="cls-3" d="M303.3,87.31H291.76a0.5,0.5,0,0,1-.5-0.5V75.27a0.5,0.5,0,0,1,.5-0.5H303.3a0.5,0.5,0,0,1,.5.5V86.81A0.5,0.5,0,0,1,303.3,87.31Zm-11-1H302.8V75.77H292.26V86.31Z"/>
  <line class="cls-6" x1="303.3" y1="75.27" x2="291.76" y2="86.81"/>
  <path class="cls-3" d="M291.76,87.31a0.5,0.5,0,0,1-.35-0.85l11.54-11.54a0.5,0.5,0,0,1,.71.71L292.11,87.17A0.5,0.5,0,0,1,291.76,87.31Z"/>
  <line class="cls-6" x1="303.3" y1="86.81" x2="291.76" y2="75.27"/>
  <path class="cls-3" d="M303.3,87.31a0.5,0.5,0,0,1-.35-0.15L291.41,75.62a0.5,0.5,0,1,1,.71-0.71l11.54,11.54A0.5,0.5,0,0,1,303.3,87.31Z"/>
  <path class="cls-7" d="M288.23,53.48A10.27,10.27,0,1,1,277,36.72L281,46.21Z" style="fill: rgb(229, 83, 129);"/>
  <path class="cls-3" d="M281,57a10.77,10.77,0,0,1-4.12-20.72,0.5,0.5,0,0,1,.65.27l3.89,9.4,7.19,7.19a0.5,0.5,0,0,1,0,.71A10.7,10.7,0,0,1,281,57Zm-4.19-19.59a9.77,9.77,0,1,0,10.74,16.08l-6.9-6.9a0.5,0.5,0,0,1-.11-0.16Z"/>
  <path class="cls-8" d="M291.24,46.21H281V35.94A10.27,10.27,0,0,1,291.24,46.21Z" style="fill: rgb(0, 132, 165);"/>
  <path class="cls-3" d="M291.25,46.71H281a0.5,0.5,0,0,1-.5-0.5V35.94a0.5,0.5,0,0,1,.5-0.5,10.78,10.78,0,0,1,10.77,10.63A0.5,0.5,0,0,1,291.25,46.71Zm-9.79-1h9.26a9.79,9.79,0,0,0-9.26-9.26v9.26Z"/>
  <path class="cls-6" d="M291.24,46.21a10.24,10.24,0,0,1-3,7.26L281,46.21h10.27Z"/>
  <path class="cls-3" d="M288.23,54a0.5,0.5,0,0,1-.35-0.15l-7.26-7.26a0.5,0.5,0,0,1,.35-0.85h10.27a0.5,0.5,0,0,1,.5.5,10.7,10.7,0,0,1-3.16,7.62A0.5,0.5,0,0,1,288.23,54Zm-6.06-7.26,6,6a9.69,9.69,0,0,0,2.5-6h-8.55Z"/>
  <path class="cls-6" d="M281,35.94V46.21L277,36.72A10.16,10.16,0,0,1,281,35.94Z"/>
  <path class="cls-3" d="M281,46.71a0.5,0.5,0,0,1-.46-0.31l-3.93-9.49a0.5,0.5,0,0,1,.27-0.65,10.62,10.62,0,0,1,4.12-.82,0.5,0.5,0,0,1,.5.5V46.21a0.5,0.5,0,0,1-.4.49H281ZM277.69,37l2.77,6.69V36.45A9.6,9.6,0,0,0,277.69,37Z"/>
</svg>